<svg width="20" height="20" viewBox="0 0 20 20" fill="none" xmlns="http://www.w3.org/2000/svg">
<path d="M11.694 3.61442C12.3447 2.96281 13.3995 2.96201 14.0502 3.61264L16.1276 5.69008C16.7727 6.33515 16.779 7.37985 16.1418 8.03365L8.44858 15.9269C7.97782 16.4099 7.33221 16.6823 6.65826 16.6823L4.36438 16.6822C3.65406 16.6821 3.08709 16.0903 3.11696 15.38L3.21544 13.0388C3.24179 12.4124 3.50223 11.8186 3.94519 11.375L11.694 3.61442Z" stroke="#8E292D" stroke-width="1.25"/>
<path opacity="0.3" d="M10.3811 5.07242C10.1371 4.82843 9.74154 4.82873 9.49755 5.07309C9.25357 5.31744 9.25357 5.71332 9.49755 5.9573L9.93933 5.51486L10.3811 5.07242ZM13.6223 10.0821C13.8663 10.3261 14.2619 10.3258 14.5059 10.0814C14.7499 9.83707 14.7499 9.44119 14.5059 9.19721L14.0641 9.63965L13.6223 10.0821ZM14.0641 9.63965L14.5059 9.19721L10.3811 5.07242L9.93933 5.51486L9.49755 5.9573L13.6223 10.0821L14.0641 9.63965Z" fill="#8E292D"/>
<path opacity="0.3" d="M11.9936 15.9963C11.6486 15.9963 11.3688 16.2763 11.3688 16.6216C11.3688 16.9669 11.6486 17.2468 11.9936 17.2468V16.6216V15.9963ZM17.095 17.2468C17.4401 17.2468 17.7198 16.9669 17.7198 16.6216C17.7198 16.2763 17.4401 15.9963 17.095 15.9963V16.6216V17.2468ZM17.095 16.6216V15.9963H11.9936V16.6216V17.2468H17.095V16.6216Z" fill="#8E292D"/>
</svg>
